<svg xmlns="http://www.w3.org/2000/svg" viewBox="0 0 103.55 113.59"><defs><style>.cls-1{font-size:12.21px;fill:#231f20;font-family:Moon-Bold, Moon;font-weight:700;}.cls-2,.cls-3{fill:#bc8e8f;}.cls-2{stroke:#bc8e8f;stroke-miterlimit:10;}</style></defs><title>Asset 2</title><g id="Layer_2" data-name="Layer 2"><g id="Layer_4" data-name="Layer 4"><text class="cls-1" transform="matrix(0.82, 0.57, -0.57, 0.82, 21.72, 92.77)">p</text><text class="cls-1" transform="translate(31.91 99.17) rotate(20.11)">e</text><text class="cls-1" transform="translate(43.35 102.79) rotate(5.09)">a</text><text class="cls-1" transform="matrix(0.98, -0.18, 0.18, 0.98, 56.3, 103.29)">r</text><text class="cls-1" transform="matrix(0.91, -0.42, 0.42, 0.91, 67.97, 100.54)">l</text><text class="cls-1" transform="translate(77.67 95.63) rotate(-38.38)">y</text><text class="cls-1" transform="matrix(0.66, -0.75, 0.75, 0.66, 85.83, 88.56)"> </text><text class="cls-1" transform="matrix(0.58, -0.81, 0.81, 0.58, 88.88, 84.96)"> </text><path class="cls-2" d="M40.29,56.52,51.36,35.19c.41-.54,5-6.29,11.73-5.74a11.36,11.36,0,0,1,7.43,3.37,10.76,10.76,0,0,1,2,3.3,14.06,14.06,0,0,1,.84,4.8c-.06,3.94-2.3,7.77-4.14,11.33C67.22,56.12,60.69,68,60.69,68,75.06,75.58,85.4,81.07,87.74,82.5c.61.37,2.21,1.3,3.1.7,1.25-.83.35-4.19-.08-5.61L67.89,66,77,47.93c2.72-8,.36-16.44-5.36-20.61a17.73,17.73,0,0,0-13.2-2.75,15.5,15.5,0,0,0-4.93,1.95c-3.87,2.27-5.73,4.8-7.73,8.27S38.42,48,38.42,48s-3.06,4.68-2.4,5.74S40.29,56.52,40.29,56.52Z"/><path class="cls-3" d="M89.32,76.86q.42-.63.81-1.26a52.61,52.61,0,0,0,6.33-13.72,43.14,43.14,0,0,0,.85-17.11,49.11,49.11,0,0,0-8.66-21.6,45.85,45.85,0,0,0-18.48-15c-16.69-7-37.26-2.76-50.51,9.33C6.89,29.18,2.42,48.32,7.47,64.64a45,45,0,0,0,7.75,14.43c.85,1.08,1.75,2.12,2.68,3.14.61.66,2.91,2.3,3,3.13.15,1-2.24,3.61-2.82,4.49a84.52,84.52,0,0,1-8.29-8.78c-9-12.36-14.2-33-4.9-52.3,6.43-13.38,18.79-23,33-27.06,1.42-.41,27.48-7.24,47.72,9.84a51.46,51.46,0,0,1,17.11,48C101,68.63,96.57,76.66,91,84l-.19.25a22.24,22.24,0,0,1-2.76-1.16c-1.84-.91-2.76-1.37-2.81-2s1.9-1.6,2.3-2A15.53,15.53,0,0,0,89.32,76.86Z"/></g></g></svg>